<?xml version="1.0" encoding="UTF-8" standalone="no"?>
<!DOCTYPE svg PUBLIC "-//W3C//DTD SVG 1.1//EN" "http://www.w3.org/Graphics/SVG/1.1/DTD/svg11.dtd">
<svg width="100%" height="100%" viewBox="0 0 469 469" version="1.1" xmlns="http://www.w3.org/2000/svg" xmlns:xlink="http://www.w3.org/1999/xlink" xml:space="preserve" xmlns:serif="http://www.serif.com/" style="fill-rule:evenodd;clip-rule:evenodd;stroke-linejoin:round;stroke-miterlimit:2;">
    <rect x="0" y="0" width="468" height="468" style="fill:rgb(255, 255 , 255);"/>
    <path d="M193,333L276,333L304,393L164,393L193,333Z" style="fill:white;"/>
    <path d="M323,253C345,250 350,231 337,214C333,212 329,210 322,209L323,253ZM206,353C206,369 220,377 234,377C249,377 263,369 263,353L262,337L207,337L206,353ZM132,214C119,231 124,250 147,253L147,209L132,214Z" style="fill:rgb(247,189,142);"/>
    <path d="M147,147L147,253C147,303 184,342 234,341C284,342 322,303 322,253L322,147L147,147Z" style="fill:rgb(248,210,160);"/>
    <path d="M132,214L147,209L147,179C194,228 260,191 284,154C329,187 323,180 322,209C329,210 333,212 337,214C335,165 343,128 293,98C297,83 300,69 286,72C275,74 271,74 258,73C227,71 200,64 167,92C123,129 135,148 132,214ZM190,218C178,223 184,243 199,238C211,233 204,212 190,218ZM271,218C258,223 265,243 279,238C292,233 284,212 271,218Z" style="fill:rgb(37,37,70);"/>
    <path d="M217,294C216,293 207,278 206,290C206,293 214,301 217,302C239,319 264,296 263,290C262,279 253,293 252,294C243,303 226,303 217,294Z" style="fill:rgb(243,177,141);"/>
    <path d="M242,268L227,268C230,278 239,278 242,268Z" style="fill:rgb(246,189,142);"/>
    <path d="M365.5,469L103,469C109,407 158,338 193,333C187,375 211,394 234,393C234.083,393.003 234.167,393.007 234.25,393.01C234.333,393.007 234.417,393.003 234.5,393C257.5,394 281.5,375 275.5,333C310.5,338 359.5,406.999 365.5,469Z" style="fill:rgb(48,107,255);"/>
</svg>
